<svg width="430" height="112" viewBox="0 0 430 112" fill="none" xmlns="http://www.w3.org/2000/svg" role="img" aria-label="ChemDeck logo">
  <path d="M56 8.5 94.54 30.75v44.5L56 97.5 17.46 75.25v-44.5L56 8.5Z" fill="#0F4C81"/>
  <path d="M56 14.5 89.34 33.75v38.5L56 91.5 22.66 72.25v-38.5L56 14.5Z" fill="#123B63"/>
  <path d="M31.8 61.4c8.95-7.56 17.5-7.62 25.65-.19 6.57 6.01 14.12 5.86 22.68-.44v11.66c-8.95 7.56-17.5 7.62-25.65.19-6.57-6.01-14.12-5.86-22.68.44V61.4Z" fill="#38BDF8"/>
  <path d="M34.4 47.58c7.43-5.52 14.31-5.27 20.65.76 7.07 6.73 14.54 6.72 22.43-.03v8.7c-7.88 6.75-15.36 6.76-22.43.03-6.34-6.03-13.22-6.28-20.65-.76v-8.7Z" fill="#7DD3FC"/>
  <path d="M56 26.3C48.41 34.85 44.62 41.39 44.62 45.92c0 6.49 5.09 11.36 11.38 11.36s11.38-4.87 11.38-11.36c0-4.53-3.79-11.07-11.38-19.62Z" fill="#E0F2FE"/>
  <path d="M56 8.5 94.54 30.75v44.5L56 97.5 17.46 75.25v-44.5L56 8.5Z" stroke="#67E8F9" stroke-width="3"/>
  <text x="118" y="70" fill="#0F172A" font-family="Inter, Geist, Arial, Helvetica, sans-serif" font-size="45" font-weight="850" letter-spacing="3.2" textLength="288" lengthAdjust="spacing">CHEMDECK</text>
</svg>
