<svg width="520" height="112" viewBox="0 0 520 112" fill="none" xmlns="http://www.w3.org/2000/svg" role="img" aria-label="ChemDeck logo">
  <path d="M56 8.5 94.54 30.75v44.5L56 97.5 17.46 75.25v-44.5L56 8.5Z" fill="#0F4C81"/>
  <path d="M56 14.5 89.34 33.75v38.5L56 91.5 22.66 72.25v-38.5L56 14.5Z" fill="#123B63"/>
  <path d="M31.8 61.4c8.95-7.56 17.5-7.62 25.65-.19 6.57 6.01 14.12 5.86 22.68-.44v11.66c-8.95 7.56-17.5 7.62-25.65.19-6.57-6.01-14.12-5.86-22.68.44V61.4Z" fill="#38BDF8"/>
  <path d="M34.4 47.58c7.43-5.52 14.31-5.27 20.65.76 7.07 6.73 14.54 6.72 22.43-.03v8.7c-7.88 6.75-15.36 6.76-22.43.03-6.34-6.03-13.22-6.28-20.65-.76v-8.7Z" fill="#7DD3FC"/>
  <path d="M56 26.3C48.41 34.85 44.62 41.39 44.62 45.92c0 6.49 5.09 11.36 11.38 11.36s11.38-4.87 11.38-11.36c0-4.53-3.79-11.07-11.38-19.62Z" fill="#E0F2FE"/>
  <path d="M56 8.5 94.54 30.75v44.5L56 97.5 17.46 75.25v-44.5L56 8.5Z" stroke="#67E8F9" stroke-width="3"/>
  <path d="M145.2 74.62c-7.73 0-14.11-2.45-19.14-7.35-4.99-4.94-7.48-11.23-7.48-18.87s2.49-13.91 7.48-18.81c5.03-4.94 11.41-7.41 19.14-7.41 6.07 0 11.39 1.49 15.96 4.47 4.62 2.93 7.91 7.01 9.87 12.23h-14.34c-2.29-3.96-6.09-5.94-11.42-5.94-4.24 0-7.66 1.43-10.27 4.28-2.57 2.84-3.85 6.57-3.85 11.18s1.28 8.36 3.85 11.24c2.61 2.84 6.03 4.26 10.27 4.26 5.32 0 9.13-1.98 11.42-5.94h14.34c-1.96 5.22-5.25 9.32-9.87 12.3-4.57 2.91-9.89 4.36-15.96 4.36Z" fill="#0F172A"/>
  <path d="M208.34 23.02h12.31V73.8h-12.31V52.84h-19.27V73.8h-12.3V23.02h12.3v19.94h19.27V23.02Z" fill="#0F172A"/>
  <path d="M231.1 73.8V23.02h33.31v9.59h-21v10.61h18.55v9.31h-18.55v11.68h21v9.59H231.1Z" fill="#0F172A"/>
  <path d="M326.28 23.02V73.8h-12.31V43.17l-12.95 30.63h-8.96L279.04 43.1v30.7h-12.3V23.02h14.1l15.64 36.5 15.64-36.5h14.16Z" fill="#0F172A"/>
  <path d="M354.95 23.02c8.1 0 14.72 2.36 19.84 7.09 5.18 4.7 7.77 10.8 7.77 18.29s-2.59 13.59-7.77 18.29c-5.13 4.74-11.74 7.11-19.84 7.11h-19.02V23.02h19.02Zm-6.71 41.19h6.71c4.71 0 8.39-1.42 11.03-4.26 2.66-2.84 3.99-6.69 3.99-11.55s-1.33-8.7-3.99-11.55c-2.64-2.83-6.32-4.24-11.03-4.24h-6.71v31.6Z" fill="#0F172A"/>
  <path d="M390.25 73.8V23.02h33.31v9.59h-21v10.61h18.55v9.31h-18.55v11.68h21v9.59h-33.31Z" fill="#0F172A"/>
  <path d="M454.22 74.62c-7.73 0-14.11-2.45-19.14-7.35-4.99-4.94-7.48-11.23-7.48-18.87s2.49-13.91 7.48-18.81c5.03-4.94 11.41-7.41 19.14-7.41 6.07 0 11.39 1.49 15.96 4.47 4.62 2.93 7.91 7.01 9.87 12.23H465.7c-2.29-3.96-6.09-5.94-11.42-5.94-4.24 0-7.66 1.43-10.27 4.28-2.57 2.84-3.85 6.57-3.85 11.18s1.28 8.36 3.85 11.24c2.61 2.84 6.03 4.26 10.27 4.26 5.32 0 9.13-1.98 11.42-5.94h14.34c-1.96 5.22-5.25 9.32-9.87 12.3-4.57 2.91-9.89 4.36-15.96 4.36Z" fill="#0F172A"/>
  <path d="M501.77 73.8 484.3 51.56V73.8H472V23.02h12.3v22.03l17.47-22.03H517.5l-20.36 25.31 20.36 25.47h-15.73Z" fill="#0F172A"/>
</svg>
