<svg width="96" height="96" viewBox="0 0 96 96" fill="none" xmlns="http://www.w3.org/2000/svg" role="img" aria-label="ChemDeck logo mark">
  <path d="M48 5.5 84.8 26.75v42.5L48 90.5 11.2 69.25v-42.5L48 5.5Z" fill="#38BDF8"/>
  <path d="M48 11.5 79.6 29.75v36.5L48 84.5 16.4 66.25v-36.5L48 11.5Z" fill="#0B2742"/>
  <path d="M25 55.4c8.52-7.2 16.66-7.26 24.42-.18 6.26 5.72 13.45 5.58 21.58-.42v11.1c-8.52 7.2-16.66 7.26-24.42.18C40.32 60.36 33.13 60.5 25 66.5V55.4Z" fill="#38BDF8"/>
  <path d="M27.5 42.25c7.07-5.26 13.62-5.02 19.66.72 6.73 6.4 13.83 6.39 21.34-.03v8.28c-7.5 6.42-14.61 6.43-21.34.03-6.04-5.74-12.59-5.98-19.66-.72v-8.28Z" fill="#BAE6FD"/>
  <path d="M48 22c-7.22 8.14-10.83 14.37-10.83 18.68 0 6.18 4.85 10.82 10.83 10.82s10.83-4.64 10.83-10.82C58.83 36.37 55.22 30.14 48 22Z" fill="#F0F9FF"/>
  <path d="M48 5.5 84.8 26.75v42.5L48 90.5 11.2 69.25v-42.5L48 5.5Z" stroke="#67E8F9" stroke-width="3"/>
</svg>
